<svg width="781" height="234" viewBox="0 0 781 234" fill="none" xmlns="http://www.w3.org/2000/svg">
<path d="M56.752 2.15199C59.9947 1.63999 63.8773 1.25599 68.4 0.999985C73.008 0.743993 77.0187 0.615997 80.432 0.615997C83.6747 0.615997 87.6 0.743993 92.208 0.999985C96.9013 1.25599 100.869 1.72532 104.112 2.40799L159.152 174.312C156.336 175.933 152.667 177.171 148.144 178.024C143.707 178.877 139.568 179.304 135.728 179.304C129.243 179.304 124.165 177.811 120.496 174.824C116.827 171.752 113.755 165.821 111.28 157.032L92.976 92.136C91.0133 84.968 88.7093 76.52 86.064 66.792C83.504 57.064 81.1147 47.976 78.896 39.528H77.36C76.5067 44.2213 75.3547 49.4693 73.904 55.272C72.4533 61.0747 70.9173 66.8773 69.296 72.68C67.76 78.3973 66.3093 83.6027 64.944 88.296L38.832 177.256C36.272 177.853 33.5413 178.237 30.64 178.408C27.7387 178.664 24.6667 178.792 21.424 178.792C18.352 178.792 14.8533 178.536 10.928 178.024C7.088 177.512 4.016 176.829 1.712 175.976L0.176 173.8L56.752 2.15199ZM59.824 140.392C58.6293 140.392 57.2213 140.392 55.6 140.392C54.064 140.307 52.528 140.264 50.992 140.264C49.456 140.179 48.048 140.136 46.768 140.136H25.264L37.68 108.264H56.624C57.8187 108.264 59.184 108.264 60.72 108.264C62.256 108.179 63.792 108.136 65.328 108.136C66.864 108.051 68.2293 108.008 69.424 108.008H88.112C89.392 108.008 90.7573 108.051 92.208 108.136C93.744 108.136 95.28 108.179 96.816 108.264C98.4373 108.264 99.8453 108.264 101.04 108.264H120.624L130.992 140.136H109.36C108.165 140.136 106.757 140.179 105.136 140.264C103.6 140.264 102.021 140.307 100.4 140.392C98.864 140.392 97.4987 140.392 96.304 140.392H59.824ZM288.286 67.688C286.153 69.224 284.403 71.6987 283.038 75.112C281.758 78.44 281.118 82.1093 281.118 86.12V153.704C281.118 165.651 280.563 175.507 279.454 183.272C278.43 191.123 276.937 197.48 274.974 202.344C273.011 207.293 270.665 211.475 267.934 214.888C262.899 221.373 256.201 226.109 247.838 229.096C239.475 232.083 230.174 233.576 219.934 233.576C211.913 233.576 203.55 232.765 194.846 231.144C186.142 229.608 178.462 227.603 171.806 225.128C171.806 220.435 172.745 215.272 174.622 209.64C176.499 204.008 178.846 199.528 181.662 196.2C187.123 198.589 192.841 200.467 198.814 201.832C204.787 203.197 210.59 203.88 216.222 203.88C222.451 203.88 227.443 202.813 231.198 200.68C235.038 198.547 237.811 195.517 239.518 191.592C241.225 187.667 242.078 183.101 242.078 177.896V85.608C242.078 74.9413 244.937 65.9387 250.654 58.6C256.371 51.176 264.862 47.3787 276.126 47.208C278.601 49.0853 281.118 52.1147 283.678 56.296C286.238 60.392 287.774 64.1893 288.286 67.688ZM166.942 113.384C166.942 98.7067 169.289 86.3333 173.982 76.264C178.675 66.1093 184.905 58.4293 192.67 53.224C200.435 48.0187 208.969 45.416 218.27 45.416C226.633 45.416 233.715 46.7813 239.518 49.512C245.406 52.2427 250.27 55.5707 254.11 59.496C258.035 63.4213 261.065 67.2613 263.198 71.016L256.67 103.656C251.721 94.3547 246.387 87.272 240.67 82.408C235.038 77.544 229.918 75.112 225.31 75.112C219.081 75.112 214.601 78.568 211.87 85.48C209.225 92.3067 207.902 101.693 207.902 113.64C207.902 125.501 209.31 134.12 212.126 139.496C215.027 144.787 218.654 147.432 223.006 147.432C228.126 147.432 233.118 145.683 237.982 142.184C242.931 138.685 247.07 133.48 250.398 126.568L256.03 154.344C253.214 159.123 249.587 163.432 245.15 167.272C240.713 171.112 235.721 174.141 230.174 176.36C224.713 178.493 218.995 179.56 213.022 179.56C202.611 179.56 193.993 176.744 187.166 171.112C180.339 165.48 175.262 157.715 171.934 147.816C168.606 137.832 166.942 126.355 166.942 113.384ZM421.952 113.128C421.952 126.781 419.691 138.685 415.168 148.84C410.645 158.995 403.989 166.888 395.2 172.52C386.496 178.067 375.701 180.84 362.816 180.84C349.845 180.84 338.965 178.024 330.176 172.392C321.387 166.76 314.773 158.867 310.336 148.712C305.899 138.557 303.68 126.696 303.68 113.128C303.68 99.3893 305.899 87.4853 310.336 77.416C314.859 67.2613 321.515 59.4107 330.304 53.864C339.093 48.232 349.931 45.416 362.816 45.416C375.787 45.416 386.667 48.232 395.456 53.864C404.245 59.496 410.859 67.3893 415.296 77.544C419.733 87.6133 421.952 99.4747 421.952 113.128ZM344.768 113.128C344.768 120.125 345.152 126.483 345.92 132.2C346.773 137.917 348.48 142.483 351.04 145.896C353.685 149.224 357.611 150.888 362.816 150.888C368.107 150.888 372.032 149.224 374.592 145.896C377.152 142.483 378.816 137.917 379.584 132.2C380.437 126.483 380.864 120.125 380.864 113.128C380.864 106.045 380.437 99.6453 379.584 93.928C378.816 88.2107 377.152 83.688 374.592 80.36C372.032 76.9467 368.107 75.24 362.816 75.24C357.611 75.24 353.685 76.9467 351.04 80.36C348.48 83.688 346.773 88.2107 345.92 93.928C345.152 99.6453 344.768 106.045 344.768 113.128ZM450.108 34.792C450.108 25.9173 451.729 19.688 454.972 16.104C458.3 12.52 463.889 10.728 471.74 10.728H487.356L489.148 12.52V135.784C489.148 139.624 490.001 142.611 491.708 144.744C493.5 146.792 496.444 147.816 500.54 147.816H514.876C517.009 154.045 518.076 160.36 518.076 166.76C518.076 168.211 517.991 169.747 517.82 171.368C517.735 172.989 517.479 174.44 517.052 175.72C512.359 176.317 506.94 176.872 500.796 177.384C494.652 177.981 489.02 178.28 483.9 178.28C472.295 178.28 463.761 175.421 458.3 169.704C452.839 163.901 450.108 154.899 450.108 142.696V34.792ZM519.484 49C520.679 53.5227 521.276 58.1733 521.276 62.952C521.276 68.1573 520.679 72.9787 519.484 77.416L471.74 76.648L430.012 77.416C428.903 72.8933 428.348 68.072 428.348 62.952C428.348 58.344 428.903 53.6933 430.012 49L472.892 49.64L519.484 49ZM532.93 142.056C532.93 131.731 535.319 123.325 540.098 116.84C544.877 110.269 551.106 105.405 558.786 102.248C566.551 99.0907 574.829 97.512 583.618 97.512C587.458 97.512 592.279 97.5973 598.082 97.768C603.97 97.9387 609.261 98.4933 613.954 99.432V124.776C610.285 123.923 605.847 123.453 600.642 123.368C595.522 123.197 591.255 123.112 587.842 123.112C582.125 123.112 578.029 124.648 575.554 127.72C573.079 130.707 571.842 134.589 571.842 139.368C571.842 142.781 572.909 145.64 575.042 147.944C577.175 150.163 580.034 151.272 583.618 151.272C588.738 151.272 593.943 149.437 599.234 145.768C604.525 142.099 609.005 137.064 612.674 130.664L618.306 156.008C614.978 159.933 611.181 163.816 606.914 167.656C602.647 171.496 597.655 174.653 591.938 177.128C586.221 179.603 579.522 180.84 571.842 180.84C563.053 180.84 555.757 178.877 549.954 174.952C544.237 171.027 539.97 166.077 537.154 160.104C534.338 154.131 532.93 148.115 532.93 142.056ZM649.026 158.568C648.343 162.067 646.765 165.864 644.29 169.96C641.815 174.056 639.341 177.085 636.866 179.048C629.357 178.877 623.127 177.171 618.178 173.928C613.314 170.685 609.559 166.717 606.914 162.024C604.354 157.245 602.69 152.595 601.922 148.072V93.288C601.922 87.912 600.557 83.8587 597.826 81.128C595.181 78.3973 590.957 77.032 585.154 77.032C579.693 77.032 573.719 77.928 567.234 79.72C560.749 81.4267 554.135 83.2613 547.394 85.224C544.578 81.9813 542.359 77.8 540.738 72.68C539.202 67.4747 538.221 62.3973 537.794 57.448C543.511 55.0587 549.869 53.0533 556.866 51.432C563.863 49.7253 570.818 48.4453 577.73 47.592C584.727 46.6533 590.957 46.184 596.418 46.184C603.927 46.184 611.138 47.592 618.05 50.408C624.962 53.1387 630.637 57.704 635.074 64.104C639.597 70.4187 641.858 78.9947 641.858 89.832V141.928C641.858 145.597 642.413 148.84 643.522 151.656C644.717 154.472 646.551 156.776 649.026 158.568ZM780.952 113.128C780.952 126.781 778.691 138.685 774.168 148.84C769.645 158.995 762.989 166.888 754.2 172.52C745.496 178.067 734.701 180.84 721.816 180.84C708.845 180.84 697.965 178.024 689.176 172.392C680.387 166.76 673.773 158.867 669.336 148.712C664.899 138.557 662.68 126.696 662.68 113.128C662.68 99.3893 664.899 87.4853 669.336 77.416C673.859 67.2613 680.515 59.4107 689.304 53.864C698.093 48.232 708.931 45.416 721.816 45.416C734.787 45.416 745.667 48.232 754.456 53.864C763.245 59.496 769.859 67.3893 774.296 77.544C778.733 87.6133 780.952 99.4747 780.952 113.128ZM703.768 113.128C703.768 120.125 704.152 126.483 704.92 132.2C705.773 137.917 707.48 142.483 710.04 145.896C712.685 149.224 716.611 150.888 721.816 150.888C727.107 150.888 731.032 149.224 733.592 145.896C736.152 142.483 737.816 137.917 738.584 132.2C739.437 126.483 739.864 120.125 739.864 113.128C739.864 106.045 739.437 99.6453 738.584 93.928C737.816 88.2107 736.152 83.688 733.592 80.36C731.032 76.9467 727.107 75.24 721.816 75.24C716.611 75.24 712.685 76.9467 710.04 80.36C707.48 83.688 705.773 88.2107 704.92 93.928C704.152 99.6453 703.768 106.045 703.768 113.128Z" fill="white"/>
</svg>
