<svg width="123" height="37" viewBox="0 0 123 37" fill="none" xmlns="http://www.w3.org/2000/svg">
<path d="M9.18 0.679999C9.68667 0.599998 10.2933 0.539998 11 0.499998C11.72 0.459999 12.3467 0.44 12.88 0.44C13.3867 0.44 14 0.459999 14.72 0.499998C15.4533 0.539998 16.0733 0.613331 16.58 0.719998L25.18 27.58C24.74 27.8333 24.1667 28.0267 23.46 28.16C22.7667 28.2933 22.12 28.36 21.52 28.36C20.5067 28.36 19.7133 28.1267 19.14 27.66C18.5667 27.18 18.0867 26.2533 17.7 24.88L14.84 14.74C14.5333 13.62 14.1733 12.3 13.76 10.78C13.36 9.26 12.9867 7.84 12.64 6.52H12.4C12.2667 7.25333 12.0867 8.07333 11.86 8.98C11.6333 9.88667 11.3933 10.7933 11.14 11.7C10.9 12.5933 10.6733 13.4067 10.46 14.14L6.38 28.04C5.98 28.1333 5.55333 28.1933 5.1 28.22C4.64667 28.26 4.16667 28.28 3.66 28.28C3.18 28.28 2.63333 28.24 2.02 28.16C1.42 28.08 0.94 27.9733 0.58 27.84L0.34 27.5L9.18 0.679999ZM9.66 22.28C9.47333 22.28 9.25333 22.28 9 22.28C8.76 22.2667 8.52 22.26 8.28 22.26C8.04 22.2467 7.82 22.24 7.62 22.24H4.26L6.2 17.26H9.16C9.34667 17.26 9.56 17.26 9.8 17.26C10.04 17.2467 10.28 17.24 10.52 17.24C10.76 17.2267 10.9733 17.22 11.16 17.22H14.08C14.28 17.22 14.4933 17.2267 14.72 17.24C14.96 17.24 15.2 17.2467 15.44 17.26C15.6933 17.26 15.9133 17.26 16.1 17.26H19.16L20.78 22.24H17.4C17.2133 22.24 16.9933 22.2467 16.74 22.26C16.5 22.26 16.2533 22.2667 16 22.28C15.76 22.28 15.5467 22.28 15.36 22.28H9.66ZM45.3572 10.92C45.0239 11.16 44.7505 11.5467 44.5372 12.08C44.3372 12.6 44.2372 13.1733 44.2372 13.8V24.36C44.2372 26.2267 44.1505 27.7667 43.9772 28.98C43.8172 30.2067 43.5839 31.2 43.2772 31.96C42.9705 32.7333 42.6039 33.3867 42.1772 33.92C41.3905 34.9333 40.3439 35.6733 39.0372 36.14C37.7305 36.6067 36.2772 36.84 34.6772 36.84C33.4239 36.84 32.1172 36.7133 30.7572 36.46C29.3972 36.22 28.1972 35.9067 27.1572 35.52C27.1572 34.7867 27.3039 33.98 27.5972 33.1C27.8905 32.22 28.2572 31.52 28.6972 31C29.5505 31.3733 30.4439 31.6667 31.3772 31.88C32.3105 32.0933 33.2172 32.2 34.0972 32.2C35.0705 32.2 35.8505 32.0333 36.4372 31.7C37.0372 31.3667 37.4705 30.8933 37.7372 30.28C38.0039 29.6667 38.1372 28.9533 38.1372 28.14V13.72C38.1372 12.0533 38.5839 10.6467 39.4772 9.5C40.3705 8.34 41.6972 7.74667 43.4572 7.72C43.8439 8.01333 44.2372 8.48667 44.6372 9.14C45.0372 9.78 45.2772 10.3733 45.3572 10.92ZM26.3972 18.06C26.3972 15.7667 26.7639 13.8333 27.4972 12.26C28.2305 10.6733 29.2039 9.47333 30.4172 8.66C31.6305 7.84667 32.9639 7.44 34.4172 7.44C35.7239 7.44 36.8305 7.65333 37.7372 8.08C38.6572 8.50667 39.4172 9.02667 40.0172 9.64C40.6305 10.2533 41.1039 10.8533 41.4372 11.44L40.4172 16.54C39.6439 15.0867 38.8105 13.98 37.9172 13.22C37.0372 12.46 36.2372 12.08 35.5172 12.08C34.5439 12.08 33.8439 12.62 33.4172 13.7C33.0039 14.7667 32.7972 16.2333 32.7972 18.1C32.7972 19.9533 33.0172 21.3 33.4572 22.14C33.9105 22.9667 34.4772 23.38 35.1572 23.38C35.9572 23.38 36.7372 23.1067 37.4972 22.56C38.2705 22.0133 38.9172 21.2 39.4372 20.12L40.3172 24.46C39.8772 25.2067 39.3105 25.88 38.6172 26.48C37.9239 27.08 37.1439 27.5533 36.2772 27.9C35.4239 28.2333 34.5305 28.4 33.5972 28.4C31.9705 28.4 30.6239 27.96 29.5572 27.08C28.4905 26.2 27.6972 24.9867 27.1772 23.44C26.6572 21.88 26.3972 20.0867 26.3972 18.06ZM66.2425 18.02C66.2425 20.1533 65.8892 22.0133 65.1825 23.6C64.4758 25.1867 63.4358 26.42 62.0625 27.3C60.7025 28.1667 59.0158 28.6 57.0025 28.6C54.9758 28.6 53.2758 28.16 51.9025 27.28C50.5292 26.4 49.4958 25.1667 48.8025 23.58C48.1092 21.9933 47.7625 20.14 47.7625 18.02C47.7625 15.8733 48.1092 14.0133 48.8025 12.44C49.5092 10.8533 50.5492 9.62667 51.9225 8.76C53.2958 7.88 54.9892 7.44 57.0025 7.44C59.0292 7.44 60.7292 7.88 62.1025 8.76C63.4758 9.64 64.5092 10.8733 65.2025 12.46C65.8958 14.0333 66.2425 15.8867 66.2425 18.02ZM54.1825 18.02C54.1825 19.1133 54.2425 20.1067 54.3625 21C54.4958 21.8933 54.7625 22.6067 55.1625 23.14C55.5758 23.66 56.1892 23.92 57.0025 23.92C57.8292 23.92 58.4425 23.66 58.8425 23.14C59.2425 22.6067 59.5025 21.8933 59.6225 21C59.7558 20.1067 59.8225 19.1133 59.8225 18.02C59.8225 16.9133 59.7558 15.9133 59.6225 15.02C59.5025 14.1267 59.2425 13.42 58.8425 12.9C58.4425 12.3667 57.8292 12.1 57.0025 12.1C56.1892 12.1 55.5758 12.3667 55.1625 12.9C54.7625 13.42 54.4958 14.1267 54.3625 15.02C54.2425 15.9133 54.1825 16.9133 54.1825 18.02ZM70.6419 5.78C70.6419 4.39333 70.8952 3.42 71.4019 2.86C71.9219 2.3 72.7952 2.02 74.0219 2.02H76.4619L76.7419 2.3V21.56C76.7419 22.16 76.8752 22.6267 77.1419 22.96C77.4219 23.28 77.8819 23.44 78.5219 23.44H80.7619C81.0952 24.4133 81.2619 25.4 81.2619 26.4C81.2619 26.6267 81.2485 26.8667 81.2219 27.12C81.2085 27.3733 81.1685 27.6 81.1019 27.8C80.3685 27.8933 79.5219 27.98 78.5619 28.06C77.6019 28.1533 76.7219 28.2 75.9219 28.2C74.1085 28.2 72.7752 27.7533 71.9219 26.86C71.0685 25.9533 70.6419 24.5467 70.6419 22.64V5.78ZM81.4819 8C81.6685 8.70667 81.7619 9.43333 81.7619 10.18C81.7619 10.9933 81.6685 11.7467 81.4819 12.44L74.0219 12.32L67.5019 12.44C67.3285 11.7333 67.2419 10.98 67.2419 10.18C67.2419 9.46 67.3285 8.73333 67.5019 8L74.2019 8.1L81.4819 8ZM83.5828 22.54C83.5828 20.9267 83.9561 19.6133 84.7028 18.6C85.4495 17.5733 86.4228 16.8133 87.6228 16.32C88.8361 15.8267 90.1295 15.58 91.5028 15.58C92.1028 15.58 92.8561 15.5933 93.7628 15.62C94.6828 15.6467 95.5095 15.7333 96.2428 15.88V19.84C95.6695 19.7067 94.9761 19.6333 94.1628 19.62C93.3628 19.5933 92.6961 19.58 92.1628 19.58C91.2695 19.58 90.6295 19.82 90.2428 20.3C89.8561 20.7667 89.6628 21.3733 89.6628 22.12C89.6628 22.6533 89.8295 23.1 90.1628 23.46C90.4961 23.8067 90.9428 23.98 91.5028 23.98C92.3028 23.98 93.1161 23.6933 93.9428 23.12C94.7695 22.5467 95.4695 21.76 96.0428 20.76L96.9228 24.72C96.4028 25.3333 95.8095 25.94 95.1428 26.54C94.4761 27.14 93.6961 27.6333 92.8028 28.02C91.9095 28.4067 90.8628 28.6 89.6628 28.6C88.2895 28.6 87.1495 28.2933 86.2428 27.68C85.3495 27.0667 84.6828 26.2933 84.2428 25.36C83.8028 24.4267 83.5828 23.4867 83.5828 22.54ZM101.723 25.12C101.616 25.6667 101.369 26.26 100.983 26.9C100.596 27.54 100.209 28.0133 99.8228 28.32C98.6495 28.2933 97.6761 28.0267 96.9028 27.52C96.1428 27.0133 95.5561 26.3933 95.1428 25.66C94.7428 24.9133 94.4828 24.1867 94.3628 23.48V14.92C94.3628 14.08 94.1495 13.4467 93.7228 13.02C93.3095 12.5933 92.6495 12.38 91.7428 12.38C90.8895 12.38 89.9561 12.52 88.9428 12.8C87.9295 13.0667 86.8961 13.3533 85.8428 13.66C85.4028 13.1533 85.0561 12.5 84.8028 11.7C84.5628 10.8867 84.4095 10.0933 84.3428 9.32C85.2361 8.94667 86.2295 8.63333 87.3228 8.38C88.4161 8.11333 89.5028 7.91333 90.5828 7.78C91.6761 7.63333 92.6495 7.56 93.5028 7.56C94.6761 7.56 95.8028 7.78 96.8828 8.22C97.9628 8.64667 98.8495 9.36 99.5428 10.36C100.249 11.3467 100.603 12.6867 100.603 14.38V22.52C100.603 23.0933 100.689 23.6 100.863 24.04C101.049 24.48 101.336 24.84 101.723 25.12ZM122.336 18.02C122.336 20.1533 121.983 22.0133 121.276 23.6C120.57 25.1867 119.53 26.42 118.156 27.3C116.796 28.1667 115.11 28.6 113.096 28.6C111.07 28.6 109.37 28.16 107.996 27.28C106.623 26.4 105.59 25.1667 104.896 23.58C104.203 21.9933 103.856 20.14 103.856 18.02C103.856 15.8733 104.203 14.0133 104.896 12.44C105.603 10.8533 106.643 9.62667 108.016 8.76C109.39 7.88 111.083 7.44 113.096 7.44C115.123 7.44 116.823 7.88 118.196 8.76C119.57 9.64 120.603 10.8733 121.296 12.46C121.99 14.0333 122.336 15.8867 122.336 18.02ZM110.276 18.02C110.276 19.1133 110.336 20.1067 110.456 21C110.59 21.8933 110.856 22.6067 111.256 23.14C111.67 23.66 112.283 23.92 113.096 23.92C113.923 23.92 114.536 23.66 114.936 23.14C115.336 22.6067 115.596 21.8933 115.716 21C115.85 20.1067 115.916 19.1133 115.916 18.02C115.916 16.9133 115.85 15.9133 115.716 15.02C115.596 14.1267 115.336 13.42 114.936 12.9C114.536 12.3667 113.923 12.1 113.096 12.1C112.283 12.1 111.67 12.3667 111.256 12.9C110.856 13.42 110.59 14.1267 110.456 15.02C110.336 15.9133 110.276 16.9133 110.276 18.02Z" fill="#694FFF"/>
</svg>
