<svg width="429" height="147" viewBox="0 0 429 147" fill="none" xmlns="http://www.w3.org/2000/svg">
<path d="M123.303 49.7337C101.401 35.6456 51.516 10.4045 33.8731 3.94741C16.2301 -2.50964 1.02142 0.425393 1.02142 25.0795V120.174C0.161376 142.527 25.3563 153.633 49.0822 140.132C72.808 126.631 106.268 110.782 128.778 93.7589C151.288 76.7359 145.204 63.8218 123.303 49.7337Z" fill="white" stroke="black"/>
<path d="M43.5158 40.9287H27.79V104.535H43.5158V86.8026L50.7412 80.6347L71.1422 105.499H89.8432L61.7917 69.2626C61.7917 69.2626 84.3179 44.7838 86.018 40.9287H69.8672C64.3083 45.1645 43.5158 66.9496 43.5158 66.9496V40.9287Z" fill="#185ADB"/>
<path d="M188.047 35.75V104H173.984V35.75H188.047ZM228.922 35.75L201.875 69.4531L186.266 86.2344L183.734 72.9219L194.281 58.4844L211.672 35.75H228.922ZM212.938 104L192.828 72.4531L203.234 63.7344L229.578 104H212.938ZM230.703 79.1562V78.1719C230.703 74.4531 231.234 71.0312 232.297 67.9062C233.359 64.75 234.906 62.0156 236.938 59.7031C238.969 57.3906 241.469 55.5938 244.438 54.3125C247.406 53 250.812 52.3438 254.656 52.3438C258.5 52.3438 261.922 53 264.922 54.3125C267.922 55.5938 270.438 57.3906 272.469 59.7031C274.531 62.0156 276.094 64.75 277.156 67.9062C278.219 71.0312 278.75 74.4531 278.75 78.1719V79.1562C278.75 82.8438 278.219 86.2656 277.156 89.4219C276.094 92.5469 274.531 95.2812 272.469 97.625C270.438 99.9375 267.938 101.734 264.969 103.016C262 104.297 258.594 104.938 254.75 104.938C250.906 104.938 247.484 104.297 244.484 103.016C241.516 101.734 239 99.9375 236.938 97.625C234.906 95.2812 233.359 92.5469 232.297 89.4219C231.234 86.2656 230.703 82.8438 230.703 79.1562ZM244.203 78.1719V79.1562C244.203 81.2812 244.391 83.2656 244.766 85.1094C245.141 86.9531 245.734 88.5781 246.547 89.9844C247.391 91.3594 248.484 92.4375 249.828 93.2188C251.172 94 252.812 94.3906 254.75 94.3906C256.625 94.3906 258.234 94 259.578 93.2188C260.922 92.4375 262 91.3594 262.812 89.9844C263.625 88.5781 264.219 86.9531 264.594 85.1094C265 83.2656 265.203 81.2812 265.203 79.1562V78.1719C265.203 76.1094 265 74.1719 264.594 72.3594C264.219 70.5156 263.609 68.8906 262.766 67.4844C261.953 66.0469 260.875 64.9219 259.531 64.1094C258.188 63.2969 256.562 62.8906 254.656 62.8906C252.75 62.8906 251.125 63.2969 249.781 64.1094C248.469 64.9219 247.391 66.0469 246.547 67.4844C245.734 68.8906 245.141 70.5156 244.766 72.3594C244.391 74.1719 244.203 76.1094 244.203 78.1719ZM300.266 64.1094V104H286.766V53.2812H299.422L300.266 64.1094ZM298.297 76.8594H294.641C294.641 73.1094 295.125 69.7344 296.094 66.7344C297.062 63.7031 298.422 61.125 300.172 59C301.922 56.8438 304 55.2031 306.406 54.0781C308.844 52.9219 311.562 52.3438 314.562 52.3438C316.938 52.3438 319.109 52.6875 321.078 53.375C323.047 54.0625 324.734 55.1562 326.141 56.6562C327.578 58.1562 328.672 60.1406 329.422 62.6094C330.203 65.0781 330.594 68.0938 330.594 71.6562V104H317V71.6094C317 69.3594 316.688 67.6094 316.062 66.3594C315.438 65.1094 314.516 64.2344 313.297 63.7344C312.109 63.2031 310.641 62.9375 308.891 62.9375C307.078 62.9375 305.5 63.2969 304.156 64.0156C302.844 64.7344 301.75 65.7344 300.875 67.0156C300.031 68.2656 299.391 69.7344 298.953 71.4219C298.516 73.1094 298.297 74.9219 298.297 76.8594ZM365.703 53.2812V62.8438H336.172V53.2812H365.703ZM343.484 40.7656H356.984V88.7188C356.984 90.1875 357.172 91.3125 357.547 92.0938C357.953 92.875 358.547 93.4219 359.328 93.7344C360.109 94.0156 361.094 94.1562 362.281 94.1562C363.125 94.1562 363.875 94.125 364.531 94.0625C365.219 93.9688 365.797 93.875 366.266 93.7812L366.312 103.719C365.156 104.094 363.906 104.391 362.562 104.609C361.219 104.828 359.734 104.938 358.109 104.938C355.141 104.938 352.547 104.453 350.328 103.484C348.141 102.484 346.453 100.891 345.266 98.7031C344.078 96.5156 343.484 93.6406 343.484 90.0781V40.7656ZM370.016 79.1562V78.1719C370.016 74.4531 370.547 71.0312 371.609 67.9062C372.672 64.75 374.219 62.0156 376.25 59.7031C378.281 57.3906 380.781 55.5938 383.75 54.3125C386.719 53 390.125 52.3438 393.969 52.3438C397.812 52.3438 401.234 53 404.234 54.3125C407.234 55.5938 409.75 57.3906 411.781 59.7031C413.844 62.0156 415.406 64.75 416.469 67.9062C417.531 71.0312 418.062 74.4531 418.062 78.1719V79.1562C418.062 82.8438 417.531 86.2656 416.469 89.4219C415.406 92.5469 413.844 95.2812 411.781 97.625C409.75 99.9375 407.25 101.734 404.281 103.016C401.312 104.297 397.906 104.938 394.062 104.938C390.219 104.938 386.797 104.297 383.797 103.016C380.828 101.734 378.312 99.9375 376.25 97.625C374.219 95.2812 372.672 92.5469 371.609 89.4219C370.547 86.2656 370.016 82.8438 370.016 79.1562ZM383.516 78.1719V79.1562C383.516 81.2812 383.703 83.2656 384.078 85.1094C384.453 86.9531 385.047 88.5781 385.859 89.9844C386.703 91.3594 387.797 92.4375 389.141 93.2188C390.484 94 392.125 94.3906 394.062 94.3906C395.938 94.3906 397.547 94 398.891 93.2188C400.234 92.4375 401.312 91.3594 402.125 89.9844C402.938 88.5781 403.531 86.9531 403.906 85.1094C404.312 83.2656 404.516 81.2812 404.516 79.1562V78.1719C404.516 76.1094 404.312 74.1719 403.906 72.3594C403.531 70.5156 402.922 68.8906 402.078 67.4844C401.266 66.0469 400.188 64.9219 398.844 64.1094C397.5 63.2969 395.875 62.8906 393.969 62.8906C392.062 62.8906 390.438 63.2969 389.094 64.1094C387.781 64.9219 386.703 66.0469 385.859 67.4844C385.047 68.8906 384.453 70.5156 384.078 72.3594C383.703 74.1719 383.516 76.1094 383.516 78.1719Z" fill="white"/>
</svg>
