<svg width="1517" height="315" viewBox="0 0 1517 315" fill="none" xmlns="http://www.w3.org/2000/svg">
<g clip-path="url(#clip0_1208_2009)">
<path d="M68.3095 172.852C68.3095 146.852 84.2648 131.444 111.689 131.444C140.109 131.444 151.079 149.259 151.079 172.852V306.704H218.889V172.852C218.889 146.852 234.845 131.444 262.268 131.444C290.69 131.444 302.157 149.259 302.157 172.852V306.704H369.968V154.074C369.968 104.963 348.03 72.2225 296.673 72.2225C256.285 72.2225 229.859 90.5188 219.388 143.963H218.391C215.898 100.63 193.959 72.2225 146.093 72.2225C108.198 72.2225 79.7773 90.0369 68.8083 142.518H68.3095V78.4817H0V306.704H68.3095V172.852Z" fill="white"/>
<path d="M462.958 54.4074V11.5555H392.155V54.4074H462.958ZM461.961 306.704V78.4817H393.652V306.704H461.961Z" fill="white"/>
<path d="M586.501 313.444C657.3 313.444 688.216 285.518 688.216 240.74C688.216 206.555 668.768 182 600.961 169C554.588 160.815 548.604 152.148 548.604 139.63C548.604 127.111 559.574 119.407 579.518 119.407C602.951 119.407 614.419 130.963 619.908 155.518L684.722 141.556C675.751 99.1853 647.826 72.2225 580.017 72.2225C513.702 72.2225 481.292 99.1853 481.292 142.518C481.292 180.074 503.73 201.741 570.045 215.222C612.424 223.407 621.401 230.63 621.401 243.148C620.906 257.111 609.933 264.815 587.994 264.815C559.075 264.815 545.114 249.889 538.632 224.37L475.309 236.408C482.289 278.296 506.722 313.444 586.501 313.444Z" fill="white"/>
<path d="M786.514 74.6293C786.514 55.8518 795.988 47.6667 813.937 47.6667C821.415 47.6667 828.899 48.1482 836.873 49.5926L841.861 3.37035C832.388 1.44446 821.917 0 803.968 0C745.628 0 718.702 31.2963 718.702 75.1112V78.4817H686.793V133.37H718.702V306.704H786.514V133.37H836.873V78.4817H786.514V74.6293Z" fill="white"/>
<path d="M935.836 258.555C909.907 258.555 900.935 247.481 900.935 233.518C900.935 221 912.899 212.333 932.843 212.333H983.704V219.074C983.704 242.185 964.757 258.555 935.836 258.555ZM983.704 306.704H1051.51V165.148C1051.51 106.889 1021.6 73.185 949.795 73.185C876.499 73.185 847.583 107.37 841.598 155.037L905.421 163.704C909.907 137.222 924.367 127.592 946.802 127.592C972.732 127.592 983.704 141.074 983.704 165.629V175.259H922.372C860.049 175.259 834.616 203.667 834.616 245.074C834.616 289.852 865.532 311.519 906.418 311.519C946.307 311.519 972.236 289.852 982.707 250.852H983.704V306.704Z" fill="white"/>
<path d="M1142.34 172.852C1142.34 146.852 1158.3 131.444 1185.72 131.444C1214.14 131.444 1225.11 149.259 1225.11 172.852V306.704H1292.92V154.074C1292.92 104.963 1271.48 72.2225 1220.12 72.2225C1182.23 72.2225 1153.81 90.0369 1142.84 142.518H1142.34V78.4817H1074.03V306.704H1142.34V172.852Z" fill="white"/>
<path d="M1414.95 313.444C1485.75 313.444 1516.67 285.518 1516.67 240.74C1516.67 206.555 1497.22 182 1429.41 169C1383.04 160.815 1377.06 152.148 1377.06 139.63C1377.06 127.111 1388.02 119.407 1407.97 119.407C1431.41 119.407 1442.88 130.963 1448.36 155.518L1513.18 141.556C1504.2 99.1853 1476.28 72.2225 1408.47 72.2225C1342.15 72.2225 1309.74 99.1853 1309.74 142.518C1309.74 180.074 1332.18 201.741 1398.5 215.222C1440.88 223.407 1449.85 230.63 1449.85 243.148C1449.36 257.111 1438.38 264.815 1416.44 264.815C1387.53 264.815 1373.56 249.889 1367.08 224.37L1303.76 236.408C1310.74 278.296 1335.17 313.444 1414.95 313.444Z" fill="white"/>
</g>
<defs>
<clipPath id="clip0_1208_2009">
<rect width="1516.67" height="315" fill="white"/>
</clipPath>
</defs>
</svg>
