<svg width="260" height="54" viewBox="0 0 260 54" fill="none" xmlns="http://www.w3.org/2000/svg">
<path d="M11.7102 29.6317C11.7102 25.1746 14.4454 22.5333 19.1466 22.5333C24.0187 22.5333 25.8992 25.5873 25.8992 29.6317V52.5778H37.5239V29.6317C37.5239 25.1746 40.2592 22.5333 44.9603 22.5333C49.8325 22.5333 51.7984 25.5873 51.7984 29.6317V52.5778H63.4231V26.4127C63.4231 17.9936 59.6622 12.381 50.8582 12.381C43.9346 12.381 39.4044 15.5175 37.6094 24.6794H37.4385C37.0111 17.2508 33.2501 12.381 25.0445 12.381C18.5483 12.381 13.6761 15.4349 11.7957 24.4317H11.7102V13.454H0V52.5778H11.7102V29.6317Z" fill="#542AE2"/>
<path d="M79.3642 9.32698V1.98095H67.2266V9.32698H79.3642ZM79.1933 52.5778V13.454H67.4831V52.5778H79.1933Z" fill="#542AE2"/>
<path d="M100.543 53.7333C112.68 53.7333 117.98 48.946 117.98 41.2698C117.98 35.4095 114.646 31.2 103.022 28.9714C95.0722 27.5683 94.0465 26.0825 94.0465 23.9365C94.0465 21.7905 95.927 20.4698 99.346 20.4698C103.363 20.4698 105.329 22.4508 106.27 26.6603L117.381 24.2667C115.843 17.0032 111.056 12.381 99.4315 12.381C88.0632 12.381 82.5073 17.0032 82.5073 24.4317C82.5073 30.8698 86.3537 34.5841 97.722 36.8952C104.987 38.2984 106.526 39.5365 106.526 41.6825C106.441 44.0762 104.56 45.3968 100.799 45.3968C95.8415 45.3968 93.4482 42.8381 92.337 38.4635L81.4816 40.527C82.6782 47.7079 86.8666 53.7333 100.543 53.7333Z" fill="#542AE2"/>
<path d="M134.831 12.7936C134.831 9.5746 136.455 8.17143 139.532 8.17143C140.814 8.17143 142.097 8.25397 143.464 8.50159L144.319 0.577775C142.695 0.247621 140.9 0 137.823 0C127.822 0 123.206 5.36508 123.206 12.8762V13.454H117.736V22.8635H123.206V52.5778H134.831V22.8635H143.464V13.454H134.831V12.7936Z" fill="#542AE2"/>
<path d="M160.429 44.3238C155.984 44.3238 154.446 42.4254 154.446 40.0317C154.446 37.8857 156.497 36.4 159.916 36.4H168.635V37.5555C168.635 41.5175 165.387 44.3238 160.429 44.3238ZM168.635 52.5778H180.259V28.3111C180.259 18.3238 175.131 12.546 162.822 12.546C150.257 12.546 145.3 18.4063 144.274 26.5778L155.215 28.0635C155.984 23.5238 158.463 21.873 162.309 21.873C166.754 21.873 168.635 24.1841 168.635 28.3936V30.0444H158.121C147.437 30.0444 143.077 34.9143 143.077 42.0127C143.077 49.6889 148.377 53.4032 155.386 53.4032C162.224 53.4032 166.669 49.6889 168.464 43.0032H168.635V52.5778Z" fill="#542AE2"/>
<path d="M195.83 29.6317C195.83 25.1746 198.565 22.5333 203.266 22.5333C208.138 22.5333 210.019 25.5873 210.019 29.6317V52.5778H221.644V26.4127C221.644 17.9936 217.968 12.381 209.164 12.381C202.668 12.381 197.796 15.4349 195.915 24.4317H195.83V13.454H184.12V52.5778H195.83V29.6317Z" fill="#542AE2"/>
<path d="M242.563 53.7333C254.7 53.7333 260 48.946 260 41.2698C260 35.4095 256.666 31.2 245.042 28.9714C237.092 27.5683 236.067 26.0825 236.067 23.9365C236.067 21.7905 237.947 20.4698 241.366 20.4698C245.384 20.4698 247.35 22.4508 248.29 26.6603L259.402 24.2667C257.863 17.0032 253.076 12.381 241.452 12.381C230.083 12.381 224.527 17.0032 224.527 24.4317C224.527 30.8698 228.374 34.5841 239.742 36.8952C247.008 38.2984 248.546 39.5365 248.546 41.6825C248.461 44.0762 246.58 45.3968 242.819 45.3968C237.862 45.3968 235.468 42.8381 234.357 38.4635L223.502 40.527C224.698 47.7079 228.887 53.7333 242.563 53.7333Z" fill="#542AE2"/>
</svg>
